<?xml version="1.0" encoding="utf-8"?>
<!-- Generator: Adobe Illustrator 27.5.0, SVG Export Plug-In . SVG Version: 6.00 Build 0)  -->
<svg version="1.1" xmlns="http://www.w3.org/2000/svg" xmlns:xlink="http://www.w3.org/1999/xlink" x="0px" y="0px"
	 viewBox="0 0 1700 1270" style="enable-background:new 0 0 1700 1270;" xml:space="preserve">
<g id="background">
	<g>
		<g>
			<rect x="0" style="fill:#FFFFFF;" width="1700" height="1270"/>
		</g>
	</g>
</g>
<g id="shadow">
	<path style="fill:#F7F7F7;" d="M427.399,962.434c-9.127,0.806-18.206,1.731-27.23,2.794
		c-41.026,4.834-80.142,14.404-105.787,29.195c-53.569,30.896,2.206,45.846,37.231,65.46c2.765,1.548,5.608,3.162,7.077,5.255
		c1.159,1.652,1.371,3.484,1.398,5.277c0.808,53.12-105.21,39.544-158.671,55.198c-30.27,8.863-51.297,25.353-42.392,40.814
		c19.548,33.936,124.035,34.881,185.904,36.125c278.506,5.597,557.761,12.186,834.748-5.285
		c59.736-3.768,228.128-8.419,287.608-12.869c27.221-2.033,61.294-7.379,61.416-19.448c0.085-8.404-17.877-14.691-35.585-17.991
		c-31.012-5.78-71.499-10.824-65.615-29.609c2.146-6.852,12.25-13.13,26.277-16.328c10.834-2.469,23.294-3.111,35.039-4.591
		c11.745-1.481,23.787-4.21,28.731-9.094c13.311-13.152-20.164-21.027-43.732-22.255c-28.228-1.472-51.234-10.753-41.486-24.705
		c6.79-9.718,28.861-16.272,35.581-25.999c2.707-3.918,2.704-8.136,0.907-12.157c-5.231-11.706-25.25-21.39-48.885-27.372
		s-159.737-8.868-186.575-11.053c-105.074-8.552-212.529-9.424-319.37-9.403c-85.382,0.017-170.76,0.587-256.098,1.712
		C567.546,957.031,496.131,956.364,427.399,962.434z"/>
</g>
<g id="object">
	<g>
		<g>
			<g>
				<g>
					<polygon style="fill:#D7E8F4;" points="1177.323,801.598 1181.907,907.914 1168.47,1088.686 1148.363,1090.114 
						1123.935,925.931 1090.14,786.999 					"/>
					<polygon style="fill:#3B455A;" points="1149.082,1098.585 1171.597,1107.911 1181.696,1096.267 1170.052,1086.168 
						1148.309,1087.713 					"/>
				</g>
				<g>
					<polygon style="fill:#D7E8F4;" points="1034.991,763.977 1030.579,844.339 1043.671,1083.286 1063.803,1084.292 
						1093.976,927.574 1120.589,755.713 					"/>
					<polygon style="fill:#3B455A;" points="1063.263,1092.776 1040.948,1102.573 1030.607,1091.144 1042.036,1080.803 
						1063.807,1081.891 					"/>
				</g>
				<g>
					<path style="fill:#96BFEE;" d="M1152.048,527.238l-62.823-6.731c0,0-34.949,3.734-58.663,86.733
						c-13.194,46.177-17.209,118.93-18.176,174.395c1.484,7.912,10.104,42.569,46.552,36.69
						c62.592-10.095,95.907-20.191,123.166-15.143c23.219,5.048,21.256-26.921,18.704-51.318l-9.253-75.485L1152.048,527.238z"/>
				</g>
				<g>
					<path style="fill:#CC937A;" d="M1116.516,444.127c-16.164,1.285-32.664,3.053-46.909,10.683
						c-3.12,1.671-6.331,3.915-7.257,7.331c-0.359,1.324-0.337,2.717-0.291,4.088c0.516,15.389,2.099,37.952,15.461,48.197
						c2.548,1.954,5.551,3.205,8.619,4.029c4.102,1.101,8.362,1.401,12.545,0.975c0.264,3.785,0.185,7.594-0.239,11.364
						c5.062,4.169,21.427-0.142,22.887-6.066c-1.156-4.388-2.313-8.776-3.469-13.163c1.726-1.396,3.333-2.944,4.76-4.665
						c5.522-6.663,7.967-14.961,8.253-23.498c0.311-9.295,1.921-18.532,1.934-27.913c0.005-3.417-0.328-7.215-2.834-9.538
						c-2.668-2.473-6.758-2.344-10.385-2.063C1118.568,443.965,1117.543,444.045,1116.516,444.127z"/>
					<path style="fill:#34435A;" d="M1068.591,467.647c6.016-7.099,16.613-12.6,23.807-14.239
						c21.749-4.955,34.316,8.292,41.425,27.51c3.588-9.24,11.728-21.971,9.465-31.761c-1.852-8.014-6.205-18.383-12.67-23.819
						c-6.05-5.085-17.633-5.357-25.01-7.122c-6.954-1.664-13.909-3.327-20.863-4.991c-1.446-0.346-2.931-0.694-4.406-0.51
						c-1.745,0.218-3.305,1.158-4.805,2.076c-12.838,7.857-25.675,15.714-38.513,23.572c-2.466,1.509-5.208,3.452-5.405,6.336
						c-0.12,1.755,0.768,3.402,1.63,4.936c3.791,6.752,9.087,13.22,12.076,20.319c2.151,3.998,11.353,25.048,18.125,20.227
						c1.109-4.296,0.079-8.856,0.62-13.26C1064.465,473.668,1066.151,470.526,1068.591,467.647z"/>
				</g>
				<polygon style="fill:#96BFEE;" points="1151.818,527.574 1179.075,541.708 1206.333,628.529 1197.247,648.72 1164.942,626.51 
									"/>
				<polygon style="fill:#96BFEE;" points="1089.225,520.507 1066.005,527.574 981.203,616.414 976.155,645.692 1016.695,712.628 
					1027.642,688.093 1010.48,638.625 1037.738,619.443 1074.082,537.669 				"/>
				<path style="fill:#59595B;" d="M1086.949,562.152l-29.514-2.662c-1.653-0.149-2.957,1.38-2.549,2.989l12.832,50.596
					c0.251,0.99,1.099,1.714,2.117,1.805l21.341,1.925c1.499,0.135,2.753-1.123,2.613-2.621l-4.659-49.859
					C1089.021,563.169,1088.105,562.256,1086.949,562.152L1086.949,562.152z"/>
				<polygon style="fill:#CC937A;" points="1096.675,613.121 1074.27,604.728 1077.111,596.117 1093.61,598.865 1092.821,594.086 
					1111.199,603.331 1109.609,612.734 				"/>
				<g>
					<polygon style="fill:#96BFEE;" points="1105.981,598.378 1103.892,617.253 1197.536,648.969 1176.205,607.755 					"/>
				</g>
			</g>
			<g>
				<polygon style="fill:#3B455A;" points="947.953,1070.152 949.593,1082.906 925.725,1098.939 911.332,1087.825 922.446,1073.432 
					946.313,1057.398 				"/>
				<g>
					<polygon style="fill:#3B455A;" points="948.76,1065.871 930.353,903.217 952.5,721.127 947.519,682.393 848.601,678.635 
						845.032,741.679 861.637,903.467 924.112,1074.183 					"/>
				</g>
				<polygon style="fill:#305399;" points="839.316,498.668 789.56,512.22 732.015,614.185 759.273,639.424 797.636,593.994 				"/>
				<polygon style="fill:#305399;" points="896.408,505.205 925.849,512.22 992.48,613.175 965.222,643.462 936.955,635.385 
					902.63,553.612 				"/>
				<g>
					<polygon style="fill:#3B455A;" points="776.019,696.863 775.758,861.002 808.797,1072.301 832.578,1072.064 845.649,876.661 
						876.243,681.083 					"/>
					<polygon style="fill:#3B455A;" points="832.541,1082.093 806.953,1095.208 793.967,1082.478 806.696,1069.492 
						832.413,1069.235 					"/>
				</g>
				<g>
					<path style="fill:#305399;" d="M962.736,752.687c-0.227-7.113-0.622-13.049-0.679-15.168
						c-0.509-19.081-2.209-38.118-4.598-57.064c-2.14-16.977-4.842-59.124-7.748-75.996c-2.399-13.931-10.758-48.704-16.798-61.625
						c-15.02-32.134-10.379-35.103-76.358-44.644c-28.916-4.182-35.751,13.839-59.391,34.562
						c-2.331,2.044-2.203,14.214-2.744,17.436c-0.953,5.675-1.973,11.341-3.143,16.979c-0.92,4.432-1.935,8.85-3.073,13.24
						l0.002-0.002c0,0-19.846,90.315-32.97,109.497c-13.124,19.181-40.238,45.997,5.117,62.371
						c8.038,2.598,16.125,5.071,24.492,6.392c0,0,37.093-4.122,56.169-3.98c17.569,0.131,35.21,1.909,52.482,4.888
						c11.55,1.93,23.336,4.736,33.668,10.133c9.857,5.149,16.971,12.723,26.972,18.055c0.948,0.505,1.986,1.027,3.063,0.878
						C962.944,787.842,963.213,767.658,962.736,752.687z"/>
				</g>
				<path style="fill:#EACFC1;" d="M871.489,577.088c0,0-10.397,1.81-11.079,0.809c-0.682-1.002-9.515-15.736-9.515-15.736
					l2.904-6.519l-2.211-7.419c0,0-13.039-5.808-14.144-9.517c-1.105-3.709,16.046,3.7,16.046,3.7l8.627,5.911l10.135,12.327
					L871.489,577.088z"/>
				<path style="fill:#59595B;" d="M835.299,522.542l-33.114,2.512c-1.854,0.141-3.013,2.072-2.265,3.774l23.532,53.553
					c0.46,1.048,1.532,1.691,2.673,1.604l23.944-1.816c1.681-0.128,2.835-1.75,2.403-3.38l-14.362-54.248
					C837.777,523.285,836.595,522.444,835.299,522.542L835.299,522.542z"/>
				<polygon style="fill:#EACFC1;" points="817.731,579.435 837.072,564.695 831.133,556.154 815.653,563.315 814.718,557.972 
					799.705,572.602 804.68,582.314 				"/>
				<g>
					<polygon style="fill:#305399;" points="815.28,584.642 799.767,564.372 746.361,596.58 759.526,639.582 					"/>
				</g>
				<g>
					<polygon style="fill:#305399;" points="958.155,590.965 872.176,568.837 851.464,586.263 965.222,643.462 					"/>
				</g>
				<g>
					<path style="fill:#EACFC1;" d="M856.48,507.25c3.329,1.644,11.186,2.234,19.383-0.976c1.652-0.647,2.766-2.24,2.743-4.013
						c-0.065-4.979-0.466-9.953-1.198-14.878c6.148-2.161,13.251-5.403,14.323-11.831c0.337-2.025-0.013-4.094-0.362-6.116
						c-1.445-8.361-2.89-16.723-4.334-25.084c-0.5-2.892-1.031-5.869-2.604-8.347c-2.76-4.348-8.116-6.25-13.189-7.131
						c-12.948-2.248-27.057,0.557-37.096,9.038c-2.672,2.257-5.088,4.97-6.266,8.263c-1.816,5.077-0.458,10.678,0.912,15.894
						c1.264,4.814,2.528,9.629,3.792,14.443c1.454,5.537,3.553,11.832,8.888,13.908c2.833,1.103,6.177,0.78,8.742,2.412
						C854.736,495.709,854.127,502.434,856.48,507.25z"/>
					<path style="fill:#34435A;" d="M781.752,423.864c-1.272-2.088-2.642-4.103-4.175-5.993c-3.32-4.093-7.411-7.602-10.083-12.145
						c-2.672-4.543-3.612-10.702-0.406-14.886c2.069-2.7,5.426-4.05,8.689-5.01c10.752-3.164,22.356-3.379,33.218-0.614
						c10.345,2.633,19.604,6.994,30.018,3.105c9.785-3.654,16.852-2.166,27.079,1.483c11.067,3.949,25.923,4.88,35.941,10.455
						c4.183,2.328,7.521,5.966,10.123,9.984c9.014,13.922,9.064,33.119,0.122,47.088c-2.006,3.134-4.407,5.999-6.929,8.734
						c-5.221,5.662-11.466,12.656-18.648,14.754c-0.171-6.425,5.681-26.684,0.747-31.951c-7.831-8.357-25.536-5.441-35.25-3.384
						c-10.596,2.244-20.04,9.748-30.545,11.351c-7.559,1.154-17.207-2.553-23.635-6.461
						C790.086,445.551,786.393,431.486,781.752,423.864z"/>
				</g>
			</g>
			<g>
				<polygon style="fill:#D7E8F4;" points="615.012,532.411 582.707,543.516 539.296,611.156 552.42,652.548 581.697,634.376 				
					"/>
				<polygon style="fill:#D7E8F4;" points="747.264,632.357 703.853,557.65 674.874,541.733 667.385,549.214 698.805,611.156 
					706.882,634.376 736.159,641.443 				"/>
				<g>
					<g>
						<polygon style="fill:#3B455A;" points="551.404,1082.911 550.307,1093.708 570.804,1106.7 582.698,1097.001 572.998,1085.106 
							552.501,1072.114 						"/>
						<polygon style="fill:#305399;" points="550.611,753.531 547.278,786.323 576.557,932.865 550.627,1079.317 571.61,1085.777 
							639.453,911.649 643.174,858.416 633.985,748.142 						"/>
					</g>
					<g>
						<polygon style="fill:#305399;" points="709.628,764.695 710.3,903.228 682.998,1081.656 662.927,1081.522 651.355,916.637 
							624.994,751.652 						"/>
						<polygon style="fill:#3B455A;" points="662.986,1089.986 684.618,1100.984 695.544,1090.205 684.764,1079.279 
							663.058,1079.134 						"/>
					</g>
				</g>
				<g>
					<path style="fill:#D7E8F4;" d="M726.542,744.364c-14.479-44.855-16.022-91.955-20.234-138.68
						c-1.249-13.786-2.575-27.877-8.313-40.473c-6.589-14.465-17.484-22.1-30.175-26.271c-16.154-5.309-35.217-5.004-52.014-6.027
						c-15.936-0.502-30.035,59.407-46.291,88.448c-9.962,17.797-20.228,33.539-26.948,52.953
						c-6.449,18.632-12.642,37.592-16.395,56.978c-5.665,29.27-20.154,49.707-6.316,59.664c1.269,0.419,2.49,0.835,3.649,1.251
						c22.699,8.131,46.186,14.149,70.102,17.306c21.216,2.8,42.763,3.31,64.067,1.21c29.161-2.874,57.415-6.993,83.122-22.202
						C736.044,773.803,731.293,759.083,726.542,744.364z"/>
				</g>
				<g>
					<path style="fill:#CC937A;" d="M619.547,477.365c15.087-24.618,56.209-24.794,58.002,8.342
						c0.539,9.957-0.138,20.229-4.22,29.327c-4.082,9.099-12.048,16.881-21.851,18.706c-0.056,0.01-0.111,0.017-0.167,0.027
						c-0.232,2.555-0.464,5.11-0.696,7.665c-0.05,0.549-0.124,1.15-0.528,1.526c-0.459,0.428-1.166,0.403-1.792,0.352
						c-3.056-0.251-6.112-0.501-9.168-0.752c-1.515-0.124-3.09-0.267-4.393-1.048c-2.854-1.71-3.271-5.708-2.649-8.976
						c0.149-0.781,0.339-1.562,0.535-2.343C616.545,520.114,609.684,493.458,619.547,477.365z"/>
					<g>
						<path style="fill:#34435A;" d="M677.663,442.904c7.379,0.609,11.833,8.945,17.563,14.117
							c4.767,4.302,10.785,6.555,15.873,10.387c5.088,3.832,9.441,10.363,8.029,16.932c6.45-1.646,13.396-3.257,19.547-0.507
							c6.151,2.75,10.332,11.841,6.281,17.58c-3.628,5.139-11.347,4.743-15.119,9.754c-5.968,7.927,1.357,24.124-7.207,28.304
							c-2.059,1.005-4.491,0.794-6.53,1.848c-2.532,1.309-3.935,4.245-5.518,6.778c-7.178,11.478-21.661,16.682-33.691,12.108
							c-6.875-5.426-11.284-14.343-12.039-23.546c-0.911-11.093,5.451-13.402,8.648-22.866c3.495-10.343,2.753-22.337-1.985-32.115
							c-3.083-6.362-8.208-12.424-14.617-14.584c-2.606-0.878-2.287,1.541-4.803-1.222c-1.08-1.187-2.052-4.944-2.042-6.634
							C658.576,455.148,667.954,442.103,677.663,442.904z"/>
						<path style="fill:#34435A;" d="M597.324,438.568c-3.919,0.163-7.878-0.922-11.742-0.206
							c-5.805,1.076-6.765,6.614-9.366,11.012c-2.88,4.869-6.93,11.361-11.352,14.637c-3.187,2.361-7.076,3.221-10.651,4.781
							c-3.575,1.56-7.157,4.261-8.051,8.372c-0.848,3.896,0.946,7.992,0.421,11.957c-0.888,5.888-2.58,8.613-2.181,14.937
							c0.206,3.263,0.479,6.732,2.28,9.346c2.373,3.445,6.68,4.397,10.598,4.65c3.918,0.252,8.061,0.119,11.486,2.24
							c7.429,4.6,4.015,12.404,4.561,19.743c0.832,11.167,11.472,20.062,21.565,18.523c8.558-1.305,15.214-9.329,16.959-18.38
							c0.874-4.531,0.066-9.134,0.988-13.659c0.89-4.364,4.738-9.794,1.615-14.153c-0.761-1.062-1.884-1.791-2.521-2.947
							c-0.515-0.935-0.658-2.06-0.657-3.15c0.002-3.778,1.705-7.5,4.459-9.748c1.979-1.616,4.491-2.547,5.978-4.707
							c1.703-2.475,1.606-5.859,2.131-8.912c1.268-7.381,6.921-13.588,13.642-14.978c4.429-0.917,8.285-1.167,12.438-3.167
							c0.632-0.304,10.222-5.466,10.072-3.901c0.261-2.724-0.739-5.396-1.805-7.881c-1.752-4.085-3.809-8.146-6.938-11.08
							c-10.116-9.485-14.352,6.064-23.258,1.803c-2.148-1.028-3.367-3.503-5.116-5.219c-3.303-3.242-8.228-3.513-12.576-2.68
							C605.954,436.631,601.738,438.385,597.324,438.568z"/>
					</g>
				</g>
				<path style="fill:#59595B;" d="M652.827,567.174l32.659,6.016c1.829,0.337,2.776,2.38,1.851,3.994l-29.09,50.749
					c-0.569,0.993-1.703,1.518-2.828,1.311l-23.615-4.35c-1.658-0.305-2.633-2.041-2.03-3.616l20.045-52.415
					C650.283,567.648,651.548,566.938,652.827,567.174L652.827,567.174z"/>
				<g>
					<polygon style="fill:#CC937A;" points="663.002,629.57 647.838,616.442 653.167,609.716 665.542,616.407 666.586,612.057 
						678.193,624.872 673.598,632.611 					"/>
					<g>
						<path style="fill:#D7E8F4;" d="M747.082,633.598l-0.194-1.931l-71.17-12.452l-8.333,15.823l68.689,36.974
							c0.232-0.056,0.464-0.111,0.696-0.167l-0.005-0.009L747.082,633.598z"/>
					</g>
				</g>
				<g>
					<polygon style="fill:#CC937A;" points="647.158,608.716 662.851,596.224 657.804,589.285 645.164,595.46 644.3,591.07 
						632.174,603.396 636.446,611.318 					"/>
					<g>
						<path style="fill:#D7E8F4;" d="M634.88,597.846l-84.309,10.326c-0.091-0.049-0.181-0.098-0.271-0.147l3.1,44.107
							l89.153-38.134L634.88,597.846z"/>
					</g>
				</g>
			</g>
			<g>
				<g>
					<polygon style="fill:#3B455A;" points="1307.89,837.534 1396.12,807.927 1373.743,960.363 1380.391,1092.619 
						1380.646,1093.506 1380.436,1093.523 1380.451,1093.811 1363.181,1094.96 1363.177,1094.943 1362.536,1094.996 
						1327.447,976.328 1310.678,850.512 1310.678,850.512 					"/>
					<polygon style="fill:#3B455A;" points="1363.905,1101 1381.78,1101.06 1385.91,1116.262 1385.455,1116.383 1385.569,1116.399 
						1355.537,1133.052 1341.451,1134.21 1340.126,1118.112 1343.999,1115.442 					"/>
				</g>
				<g>
					<polygon style="fill:#3B455A;" points="1239.257,838.459 1257.958,1101.09 1275.219,1102.37 1296.632,961.462 
						1330.763,821.496 					"/>
					<polygon style="fill:#3B455A;" points="1257.829,1107.171 1234.567,1119.495 1236.402,1130.358 1277.48,1125.364 
						1275.52,1109.733 					"/>
				</g>
				<g>
					<path style="fill:#587BC9;" d="M1420.181,881.578c1.842-44.397-37.811-185.579-37.811-185.579l0.006-0.003
						c-4.193-13.266-7.392-26.759-9.307-40.287c-1.363-9.631-30.222-119.088-28.309-119.228c-19.88,1.452-58.209-3.248-72.934,10.87
						c-0.42,0.404-0.822,0.822-1.203,1.257c-11.481,13.092-17.444,39.6-22.872,55.915c-7.13,21.431-12.607,43.412-16.348,65.686
						c-3.271,19.477-5.213,39.15-6.587,58.844c-1.181,16.93-0.244,33.766-0.82,50.42c-0.637,18.437-6.169,38.426-10.294,56.362
						c-4.154,18.063-9.427,35.911-16.723,52.971c19.737,8.735,41.72,11.095,63.303,11.178c21.583,0.082,43.139-2,64.719-1.669
						c18.249,0.28,36.723,2.269,54.603-1.39C1393.824,894.016,1406.95,887.687,1420.181,881.578L1420.181,881.578z"/>
				</g>
				<g>
					<path style="fill:#34435A;" d="M1276.7,490.057c-9.072,4.483-18.53,16.038-17.946,26.794c0.281,5.18,3.147,9.204,3.228,14.76
						c0.202,10.953,16.807,22.42,6.643,32.983c-5.224,5.429-13.391,6.493-20.887,7.246c-0.909,0.091-1.863,0.176-2.705-0.179
						c-1.386-0.585-2.06-2.228-2.029-3.732c0.031-1.504,0.612-2.933,1.068-4.366c4.77-14.993-2.432-32.476-3.282-47.752
						c-0.849-15.246,2.76-31.706,15.259-41.642c8.382,2.556,14.627,6.096,18.747,13.829L1276.7,490.057z"/>
					<path style="fill:#EACDB0;" d="M1282.338,555.124c-10.336-1.302-19.12-8.929-23.935-18.167
						c-4.814-9.238-6.15-19.908-6.199-30.324c-0.164-34.665,42.73-37.004,59.974-12.258
						C1327.205,515.941,1312.389,558.909,1282.338,555.124z"/>
					<path style="fill:#34435A;" d="M1334.267,559.351c-5.324-1.516-10.598-3.189-14.72-7.686c-6.662-7.27-8.65-20.961-11.79-30.018
						c-3.306-9.548-7.216-19.864-15.893-25.04c-5.667-3.381-11.374-3.12-17.584-2.007c-4.253,0.762-4.101,2.398-8.131,0.825
						c-3.089-1.205-6.456-5.952-7.688-8.872c-2.077-4.925-1.077-10.746,1.532-15.412c4.014-7.181,9.603-11.451,17.437-13.169
						c27.5-6.028,51.445,6.28,64.524,31.736c6.287,12.236,6.349,27.219,12.791,38.919c3.977,7.223,9.922,11.388,13.533,19.202
						c9.371,20.276,26.478,45.2,29.902,67.395c0.127,0.821,0.208,1.743-0.296,2.404c-1.027,1.345-3.152,0.369-4.482-0.678
						c-7.765-6.109-15.531-12.218-23.296-18.327c-3.049-2.399-6.141-4.841-8.411-7.988c-5.652-7.834-5.789-19.375-13.38-25.349
						C1344.174,562.027,1339.199,560.755,1334.267,559.351z"/>
				</g>
				<g>
					<g>
						<path style="fill:#EBCEB1;" d="M1456.085,586.533c5.195,0.968,18.725-2.653,21.834-7.428
							c7.175-11.022-9.847-7.629-15.995-7.778c0.704-2.135,1.449-4.177,1.721-6.363c0.25-2.005-18.018,3.201-19.778,5.114
							c-4.224,4.593-2.298,8.061-1.917,13.869C1446.667,584.696,1451.377,585.653,1456.085,586.533z"/>
					</g>
					<polygon style="fill:#587BC9;" points="1319.403,628.157 1394.11,662.482 1456.055,587.464 1437.782,572.407 1396.839,613.658 
						1347.454,565.664 1300.412,567.702 					"/>
				</g>
				<polygon style="fill:#587BC9;" points="1270.622,548.608 1257.821,558.498 1201.286,657.434 1240.658,672.577 1263.878,586.765 
					1273.973,564.555 				"/>
				<g>
					<polygon style="fill:#3B455A;" points="1314.481,543.836 1347.671,563.546 1229.553,606.956 1237.298,582.711 					"/>
					<polygon style="fill:#3B455A;" points="1266.537,550.107 1288.02,557.164 1321.604,583.608 1325.451,736.179 1264.156,727.423 
						1278.443,597.92 1246.054,578.302 1240.658,571.622 					"/>
				</g>
				<path style="fill:#59595B;" d="M1264.613,578.407l-25.712,14.733c-1.44,0.825-1.632,2.826-0.376,3.91l39.512,34.109
					c0.773,0.667,1.883,0.774,2.769,0.266l18.592-10.653c1.306-0.748,1.612-2.497,0.639-3.645l-32.391-38.189
					C1266.894,578.054,1265.619,577.83,1264.613,578.407L1264.613,578.407z"/>
				<polygon style="fill:#EBCEB1;" points="1269.76,626.905 1276.945,603.673 1267.15,600.169 1258.707,614.989 1254.843,611.182 
					1251.117,631.811 1260.808,636.828 				"/>
				<g>
					<path style="fill:#587BC9;" d="M1250.823,622.997c-10.882,9.552-21.924,18.983-32.05,29.349
						c-4.576,4.684-10.695,2.605-17.487,5.088l13.124,31.296c26.248-8.076,37.467-26.755,51.652-52.209
						C1260.985,632.012,1255.903,627.506,1250.823,622.997z"/>
				</g>
			</g>
			<g>
				<g>
					<g>
						<polygon style="fill:#EACDB0;" points="416.382,827.945 329.037,795.824 347.04,948.838 336.608,1080.849 336.328,1081.729 
							336.537,1081.752 336.514,1082.04 353.744,1083.683 353.748,1083.666 354.388,1083.737 392.86,966.122 413.225,840.838 
							413.225,840.838 						"/>
						<polygon style="fill:#3B455A;" points="352.848,1089.699 334.978,1089.247 330.415,1104.325 330.866,1104.459 
							330.751,1104.471 360.294,1121.977 374.341,1123.539 376.126,1107.485 372.332,1104.705 						"/>
					</g>
					<g>
						<polygon style="fill:#EACDB0;" points="475.879,830.574 449.666,1092.562 432.376,1093.348 415.006,951.884 384.896,810.999 
													"/>
						<polygon style="fill:#3B455A;" points="449.621,1098.645 472.521,1111.63 470.376,1122.435 429.457,1116.268 
							431.864,1100.699 						"/>
					</g>
					<g>
						<g>
							<path style="fill:#587BC9;" d="M518.027,892.57c5.527-3.838,5.645-10.52,5.636-17.212
								c-0.018-12.567-2.278-25.413-5.159-37.625c-5.485-22.91-11.703-50.504-14.437-80.191
								C497,680.815,472.77,629.328,472.77,629.328l-7.818-20.849c-1.554-2.711-3.166-5.392-4.85-8.034
								c-9.764-15.323-26.719-41.363-44.852-45.625c-0.379-0.089-0.76-0.176-1.143-0.26c-19.064-4.184-43.494-2.242-60.723,7.026
								c-3.268,1.759-6.176,4.101-9.062,6.43c-8.425,6.796-15.295,10.476-18.927,20.831c-3.154,8.992-3.887,18.803-5.625,28.121
								c-3.532,18.931-5.64,38.089-8.46,57.131c-5.289,35.708-9.781,71.531-15.439,107.184c-2.912,18.349-5.845,36.731-7.221,55.273
								c-1.216,16.393-16.005,33.039-24.316,47.73c-2.892,5.112,38.642,18.36,42.364,19.226c17.229,4.011,35.556,2.986,53.316,3.067
								c38.921,0.176,77.848-1.024,116.684-3.598c12.906-0.855,28.809-3.319,40.261-9.745
								C517.335,893.026,517.691,892.804,518.027,892.57z"/>
						</g>
						<path style="fill:#D7E8F4;" d="M392.729,552.463c0,0-21.924-5.919-24.953,43.55c-3.029,49.468-8.076,174.653-15.143,208.978
							c-7.067,34.325-17.667,101.651-17.667,101.651l67.135,2.333l76.726-6.057c0,0-26.248-48.459-30.287-82.783
							c-4.038-34.325,3.029-163.548-14.134-212.006C417.245,559.669,413.644,553.334,392.729,552.463z"/>
						<g>
							<polygon style="fill:#587BC9;" points="357.681,559.669 336.481,569.765 284.993,649.519 298.118,681.825 334.377,635.916 
															"/>
							<path style="fill:#EBCEB1;" d="M390.348,637.531c0,0,8.521-1.781,8.738-2.756c0.218-0.975,2.498-14.96,2.498-14.96
								l-4.212-4.112l-0.566-6.36c0,0,8.224-8.424,7.941-11.604c-0.283-3.18-11.171,7.725-11.171,7.725l-4.811,7.159l-4.012,12.537
								L390.348,637.531z"/>
						</g>
						<g>
							<polygon style="fill:#587BC9;" points="491.952,662.643 497,668.701 515.172,643.462 442.484,562.698 415.226,554.621 
								428.35,589.956 							"/>
						</g>
						<path style="fill:#59595B;" d="M409,589.956h33.209c1.86,0,3.161,1.838,2.544,3.592l-19.415,55.179
							c-0.38,1.08-1.4,1.802-2.544,1.802h-24.012c-1.686,0-2.959-1.53-2.652-3.188l10.218-55.179
							C406.585,590.883,407.7,589.956,409,589.956L409,589.956z"/>
						<polygon style="fill:#EBCEB1;" points="431.199,641.745 415.247,629.587 420.146,622.542 432.913,628.449 433.684,624.042 
							446.068,636.109 441.964,644.12 						"/>
						<g>
							<polygon style="fill:#587BC9;" points="493.688,638.638 492.973,640.208 443.245,630.617 435.913,646.928 497,668.701 
															"/>
						</g>
					</g>
					<g>
						<g>
							<path style="fill:#34435A;" d="M422.112,517.07c3.317,9.96-1.483,20.581-5.698,29.658
								c-3.737,8.049-5.037,13.347,4.451,15.519c5.346,1.224,14.832,3.508,19.521-0.586c3.549-3.101,1.554-12.677-0.173-16.481
								c-1.319-2.905-4.81-4.38-6.052-7.319c-0.512-1.211-0.585-2.558-0.604-3.872c-0.074-5.37,0.669-10.751,2.195-15.9
								c1.037-3.496,2.441-6.931,2.754-10.564c0.454-5.268-3.272-11.408-5.229-16.249c-3.642-9.006-16.32-21.087-26.936-14.017
								c-2.417,1.61-3.824,4.331-5.001,6.986c-0.702,1.585-1.37,3.24-1.391,4.974c-0.082,6.915,6.232,8.082,10.592,11.373
								C415.918,504.651,419.994,510.713,422.112,517.07z"/>
							<path style="fill:#EACDB0;" d="M401.921,555.937c9.208-2.169,16.407-9.901,19.866-18.705
								c3.459-8.804,3.64-18.567,2.683-27.978c-3.184-31.317-42.141-29.307-55.333-5.304
								C357.641,524.868,375.148,562.243,401.921,555.937z"/>
						</g>
						<path style="fill:#EACDB0;" d="M401.911,552.562c-0.154,3.567-0.309,7.135-0.463,10.702c-0.023,0.522-0.066,1.096-0.431,1.47
							c-0.416,0.426-1.087,0.434-1.682,0.413c-2.907-0.101-5.814-0.201-8.721-0.302c-1.441-0.05-2.939-0.115-4.21-0.796
							c-2.781-1.492-3.356-5.262-2.912-8.386c0.444-3.124,1.564-6.274,0.902-9.359c6.003,2.958,11.705-3.726,17.708-0.768
							L401.911,552.562z"/>
					</g>
					<path style="fill:#34435A;" d="M389.348,454.959c-10.229,3.475-16.789,13.821-26.771,17.953
						c-5.725,2.37-12.499,2.671-17.17,6.742c-10.468,9.123-2.055,28.266-10.654,39.168c-1.788,2.267-4.199,3.981-5.994,6.241
						c-3.872,4.876-4.378,11.532-4.725,17.75c-0.078,1.398-0.092,2.923,0.15,4.33c1.345,14.358,22.189,13.445,30.469,12.525
						c9.086-1.01,6.057-6.057,6.057-6.057l-0.33-0.403c-0.872-5.83,1.526-12.047,6.106-15.761c1.7-1.378,3.71-2.476,4.908-4.306
						c2.69-4.109,0.122-9.553,0.517-14.448c1.592-19.716,34.682-15.49,44.02-29.527
						C427.382,471.952,408.666,448.396,389.348,454.959z"/>
				</g>
				<g>
					<polygon style="fill:#587BC9;" points="394.554,637.677 384.411,622.949 322.173,636.606 322.066,636.204 321.173,638.928 
						298.07,680.699 299.046,681.335 					"/>
				</g>
			</g>
		</g>
		<g>
			<path style="fill:#D7E8F4;" d="M1282.564,219.926l224.646-0.431c20.794-0.04,37.682,16.784,37.722,37.578l0.278,144.805
				c0.04,20.709-16.653,37.562-37.361,37.721l-36.1,0.277l-41.047,57.823c-1.199,1.689-3.859,0.866-3.893-1.205l-0.952-56.53
				l-142.958-0.061c-20.759-0.009-37.594-16.819-37.634-37.578l-0.278-144.677C1244.946,236.854,1261.771,219.965,1282.564,219.926z
				"/>
			<g>
				<rect x="1288.211" y="263.506" style="fill:#FFFFF3;" width="179.461" height="7.478"/>
				<rect x="1288.197" y="320.527" style="fill:#FFFFF3;" width="214.044" height="7.478"/>
				<rect x="1288.182" y="377.543" style="fill:#FFFFF3;" width="214.044" height="7.478"/>
			</g>
			<g>
				<path style="opacity:0.26;fill:#191919;" d="M1291.379,238.804c0.049-6.437-0.838-12.726-2.566-18.804l-6.628,0.013
					c-5.78,0.011-11.25,1.327-16.14,3.664c-11.281,5.468-19.396,16.406-20.955,29.357v54.789
					C1273.155,291.14,1291.163,266.851,1291.379,238.804z"/>
			</g>
		</g>
		<g>
			<path style="fill:#305399;" d="M501.874,171l-270.015,0.069c-1.04,0-1.884,0.919-1.883,2.053l0.053,204.842
				c0,1.134,0.844,2.052,1.884,2.052l61.03-0.016l41.902,58.756c1.224,1.716,3.929,0.872,3.96-1.236l0.844-57.532l105.56-0.027
				c32.365-0.008,58.596-28.603,58.586-63.868l-0.037-143.042C503.758,171.919,502.914,171,501.874,171z"/>
			<g>
				<rect x="300.216" y="205.214" style="fill:#FFFFF3;" width="168.193" height="7.008"/>
				<rect x="267.817" y="258.654" style="fill:#FFFFF3;" width="200.605" height="7.008"/>
				<rect x="267.831" y="312.09" style="fill:#FFFFF3;" width="200.605" height="7.008"/>
			</g>
		</g>
		<g>
			<path style="fill:#3B455A;" d="M752.503,78l288.104,0.074c1.11,0,2.01,0.981,2.01,2.191l-0.056,218.565
				c0,1.21-0.901,2.19-2.011,2.19l-65.119-0.017l-44.709,62.692c-1.306,1.831-4.192,0.931-4.225-1.318l-0.9-61.387l-112.632-0.029
				c-34.534-0.009-62.521-30.519-62.512-68.147l0.039-152.625C750.493,78.98,751.393,78,752.503,78z"/>
			<g>
				<rect x="788.211" y="114.506" style="fill:#FFFFF3;" width="179.461" height="7.478"/>
				<rect x="788.197" y="171.527" style="fill:#FFFFF3;" width="214.044" height="7.478"/>
				<rect x="788.182" y="228.543" style="fill:#FFFFF3;" width="214.044" height="7.478"/>
			</g>
			<path style="opacity:0.26;fill:#191919;" d="M751.408,244.637c3.132,19.526,13.881,36.194,28.803,46.22
				c0.1-1.283,0.148-2.581,0.14-3.891C780.231,267.717,768.262,251.33,751.408,244.637z"/>
		</g>
		<g>
			<path style="fill:#7DB5DB;" d="M767.961,274.966c-0.157-25.152-20.535-45.439-45.622-45.564c0.028-0.791,0.05-1.583,0.045-2.382
				c-0.191-30.72-25.25-55.468-55.97-55.277c-16.715,0.104-31.651,7.581-41.774,19.315c-9.495-10.688-23.362-17.396-38.782-17.301
				c-27.443,0.171-49.728,21.803-51.052,48.882c-1.162-0.081-2.332-0.133-3.517-0.126c-25.327,0.158-45.731,20.817-45.573,46.145
				c0.127,20.374,13.525,37.552,31.944,43.414c-2.258,5.369-3.493,11.271-3.454,17.463c0.153,24.51,20.146,44.255,44.655,44.102
				c1.879-0.012,3.729-0.145,5.545-0.384l0.296,47.471c0.043,2.058,2.69,2.865,3.431,1.811l29.826-42.402
				c7.047,4.614,15.477,7.285,24.532,7.228c16.423-0.102,30.696-9.119,38.288-22.427c7.645,4.722,16.66,7.432,26.308,7.372
				c27.37-0.171,49.42-22.497,49.249-49.867c-0.008-1.19-0.072-2.367-0.161-3.536C754.722,312.934,768.089,295.483,767.961,274.966z
				"/>
			<g>
				<path style="fill:#FFFFFF;" d="M627.91,281.081c-7.649-0.059-7.753,11.828-0.092,11.887
					C635.466,293.026,635.571,281.14,627.91,281.081z"/>
				<path style="fill:#FFFFFF;" d="M561.047,280.566c-7.649-0.059-7.753,11.828-0.092,11.887
					C568.604,292.511,568.708,280.625,561.047,280.566z"/>
				<g>
					<path style="fill:#FFFFFF;" d="M695.165,281.081c-7.649-0.059-7.753,11.828-0.092,11.887
						C702.722,293.026,702.826,281.14,695.165,281.081z"/>
				</g>
			</g>
		</g>
		<g>
			<path style="fill:#587BC9;" d="M1150.741,134.062c-71.922-0.554-130.544,40.255-130.936,91.149
				c-0.257,33.369,24.583,62.788,61.992,79.248l-0.398,51.637c0.016,2.281,2.937,3.216,3.774,2.06l31.145-43.038
				c10.533,2.032,21.592,3.16,33.004,3.248c71.922,0.554,130.544-40.255,130.936-91.149
				C1280.65,176.323,1222.664,134.616,1150.741,134.062z"/>
			<g>
				<path style="fill:#FFFFFF;" d="M1155.974,222.04c-7.506-0.058-7.608,11.607-0.09,11.665
					C1163.389,233.762,1163.492,222.097,1155.974,222.04z"/>
				<path style="fill:#FFFFFF;" d="M1090.359,221.534c-7.506-0.058-7.608,11.607-0.09,11.665
					C1097.775,233.257,1097.877,221.592,1090.359,221.534z"/>
				<g>
					<path style="fill:#FFFFFF;" d="M1221.974,222.04c-7.506-0.058-7.608,11.607-0.09,11.665
						C1229.389,233.762,1229.492,222.097,1221.974,222.04z"/>
				</g>
			</g>
		</g>
	</g>
</g>
</svg>
